
<svg xmlns="http://www.w3.org/2000/svg" version="1.1" xmlns:xlink="http://www.w3.org/1999/xlink" preserveAspectRatio="none" x="0px" y="0px" width="24px" height="24px" viewBox="0 0 24 24">
<defs>
<g id="Symbol_1_0_Layer0_0_FILL">
<path fill="#000000" stroke="none" d="
M -7.45 9.9
L -0.2 17.3 7.8 9.8 3.3 9.8 3.3 4.55 -3.05 4.55 -3.05 9.9 -7.45 9.9
M -5.2 -3.75
L -10.45 -3.75 -10.45 -8.25 -17.95 -0.25 -10.55 7 -10.55 2.6 -5.2 2.6 -5.2 -3.75
M 10.35 -8.1
L 10.35 -3.7 5 -3.7 5 2.65 10.25 2.65 10.25 7.15 17.75 -0.85 10.35 -8.1
M 2.7 -11
L 7.2 -11 -0.8 -18.5 -8.05 -11.1 -3.65 -11.1 -3.65 -5.75 2.7 -5.75 2.7 -11 Z"/>
</g>

<path id="Layer2_0_1_STROKES" stroke="#000000" stroke-width="2" stroke-linejoin="round" stroke-linecap="round" fill="none" d="
M 21.75 14.1
Q 21.75 17.2 19.55 19.3 17.4 21.5 14.35 21.5 11.25 21.5 9.05 19.3 6.9 17.2 6.9 14.1 6.9 11 9.05 8.8 11.25 6.7 14.35 6.7 17.4 6.7 19.55 8.8 21.75 11 21.75 14.1 Z"/>
</defs>

<g transform="matrix( 1, 0, 0, 1, 0,0) ">
<use xlink:href="#Layer2_0_1_STROKES"/>
</g>

<g transform="matrix( 0.263031005859375, 0, 0, 0.263031005859375, 5.05,5.4) ">
<g transform="matrix( 1, 0, 0, 1, 0,0) ">
<use xlink:href="#Symbol_1_0_Layer0_0_FILL"/>
</g>
</g>
</svg>
