
<svg xmlns="http://www.w3.org/2000/svg" version="1.1" xmlns:xlink="http://www.w3.org/1999/xlink" preserveAspectRatio="none" x="0px" y="0px" width="32px" height="32px" viewBox="0 0 32 32">
<defs>
<path id="Layer0_0_1_STROKES" stroke="#000000" stroke-width="1" stroke-linejoin="round" stroke-linecap="round" fill="none" d="
M 4 16
L 4 12.1 10 9.575 16 7.05 22 4.525 28 2 28 6 28 10 28 14 28 18 25.1 19.225 19.05 21.775 12.95 24.325 7.45 26.65 4 28.1 4 24 4 20 4 16 7.075 14.725 12.95 12.275 16 11 16 7.05
M 28 6
L 25 7.25 25 11.25 28 10
M 22 4.525
L 22 8.5 25 7.25
M 28 14
L 25 15.25 25.1 19.225
M 25 11.25
L 22 12.5 22 16.5 25 15.25
M 16 11
L 19 9.75 22 8.5
M 4 24
L 7.45 22.575 10 21.5 10 17.5 7.075 18.725 4 20
M 7.075 14.725
L 7.075 18.725
M 12.95 12.275
L 13.05 16.225 16 15 19.175 13.675 19 9.75
M 19.05 21.775
L 19 17.75 16 19 13 20.25 12.95 24.325
M 16 15
L 16 19
M 10 21.5
L 13 20.25
M 10 17.5
L 13.05 16.225
M 10 9.575
L 10 13
M 7.45 22.575
L 7.45 26.65
M 19 17.75
L 22 16.5
M 19.175 13.675
L 22 12.5"/>
</defs>

<g transform="matrix( 1, 0, 0, 1, 0,0) ">
<use xlink:href="#Layer0_0_1_STROKES"/>
</g>
</svg>
