<?xml version="1.0" encoding="utf-8"?>
<!-- Generator: Adobe Illustrator 25.2.1, SVG Export Plug-In . SVG Version: 6.00 Build 0)  -->
<svg version="1.1" id="Layer_1" xmlns="http://www.w3.org/2000/svg" xmlns:xlink="http://www.w3.org/1999/xlink" x="0px" y="0px"
	 viewBox="0 0 1419 247" style="enable-background:new 0 0 1419 247;" xml:space="preserve">
<style type="text/css">
	.st0{fill:#F9F9F9;}
	.st1{clip-path:url(#SVGID_2_);fill:url(#SVGID_3_);}
</style>
<g>
	<path class="st0" d="M281.6,64l36.5,100l36.3-100h23.1l-48.2,126.2h-22.4L258.7,64H281.6z"/>
	<path class="st0" d="M395.8,15.9c3.8,0,7,1.2,9.4,3.7c2.5,2.5,3.7,5.8,3.7,9.9c0,4-1.2,7.2-3.7,9.8c-2.5,2.5-5.6,3.8-9.4,3.8
		c-3.8,0-6.9-1.3-9.3-3.8c-2.4-2.5-3.6-5.8-3.6-9.8c0-4.1,1.2-7.4,3.6-9.9C388.9,17.1,392,15.9,395.8,15.9z M407.3,64v126.2h-22.7
		V64H407.3z"/>
	<path class="st0" d="M450.7,64v15.5c9.5-12.4,22.8-18.6,39.8-18.6c6.4,0,12.2,0.9,17.5,2.7c5.3,1.8,9.9,4.7,13.7,8.7
		c3.8,4,6.8,9.1,8.8,15.4c2.1,6.3,3.1,13.8,3.1,22.5v79.9h-22.7v-77.5c0-11-2.5-18.8-7.5-23.4c-5-4.6-11.7-6.9-20.2-6.9
		c-6.7,0-12.7,1.6-18.1,4.8c-5.4,3.2-9.9,9-13.4,17.4v85.6h-22.7V64H450.7z"/>
	<path class="st0" d="M577.4,13.9v176.3h-22.7V21.6L577.4,13.9z"/>
	<path class="st0" d="M603.4,74.3c4.6-3.5,10.7-6.6,18.1-9.3c7.5-2.7,16.5-4.1,27-4.1c7.2,0,13.7,0.8,19.7,2.5
		c6,1.7,11.1,4.4,15.5,8.2c4.4,3.8,7.8,8.9,10.1,15.1c2.4,6.3,3.6,14,3.6,23.3v80.2h-21v-9.1c-10.8,7.2-23.2,10.7-37.2,10.7
		c-6.4,0-12.3-0.8-17.8-2.4c-5.5-1.6-10.3-4.1-14.3-7.4c-4.1-3.3-7.3-7.6-9.7-12.6c-2.4-5.1-3.6-11.1-3.6-18.1
		c0-6.8,1.2-12.9,3.6-18.2c2.4-5.3,5.7-9.7,10-13.2c4.3-3.5,9.4-6.2,15.3-8c5.9-1.8,12.3-2.7,19.3-2.7c5.6,0,11.2,0.6,16.9,1.7
		c5.7,1.1,11.1,2.8,16.2,5v-4.3c0-5.6-0.7-10.2-2-14c-1.4-3.7-3.3-6.7-5.8-8.9c-2.5-2.2-5.6-3.8-9.3-4.8c-3.7-1-7.7-1.4-12.2-1.4
		c-6.7,0-12.8,0.9-18.2,2.6c-5.5,1.8-10.5,4.2-15.1,7.4L603.4,74.3z M644.2,173.1c5.1,0,10.4-0.6,15.9-1.9
		c5.5-1.3,10.5-3.1,15.1-5.5v-35.1c-4.3-1.6-8.9-2.8-13.7-3.6c-4.9-0.8-9.5-1.2-14-1.2c-9.1,0-16.7,2-22.9,5.8
		c-6.2,3.9-9.3,10.1-9.3,18.5c0,4.1,0.8,7.6,2.3,10.5c1.5,2.9,3.6,5.2,6.2,7c2.6,1.8,5.7,3.2,9.2,4.1
		C636.5,172.6,640.2,173.1,644.2,173.1z"/>
	<path class="st0" d="M821.4,64v102.1c0,11.5-1.4,21.3-4.1,29.6c-2.7,8.3-6.8,15.3-12.4,21c-5.6,5.7-12.7,10.4-21.3,14.1
		c-8.7,3.7-19,6.7-31.1,9.1l-2.6-20.3c8.7-2.1,16.3-4.4,22.7-7c6.4-2.6,11.6-5.8,15.7-9.7c4.1-3.8,7.2-8.2,9.1-13.2
		s2.9-10.9,2.9-17.8v-4.5c-4.1,5.1-9.4,9.3-15.7,12.6c-6.4,3.3-13.8,5-22.4,5c-8.7,0-16.2-1.8-22.3-5.5c-6.1-3.7-11.1-8.4-14.9-14.2
		c-3.8-5.8-6.6-12.4-8.2-19.8c-1.7-7.4-2.5-14.9-2.5-22.5s0.8-15.1,2.5-22.5s4.4-14,8.2-19.8c3.8-5.8,8.8-10.5,14.9-14.2
		c6.1-3.7,13.6-5.5,22.3-5.5c8.6,0,16.1,1.7,22.4,5.1c6.4,3.4,11.6,7.7,15.7,12.8V64H821.4z M767.5,165.2c8.1,0,14.7-1.9,19.9-5.8
		c5.2-3.9,9.4-8.9,12.8-14.9V102c-3.3-6-7.6-11-12.8-14.8c-5.2-3.8-11.7-5.7-19.7-5.7c-6,0-11.1,1.2-15.3,3.5
		c-4.1,2.3-7.5,5.4-10,9.3c-2.5,3.9-4.3,8.3-5.4,13.4c-1,5-1.6,10.2-1.6,15.6c0,5.4,0.5,10.7,1.6,15.7c1,5.1,2.8,9.6,5.4,13.5
		c2.5,3.9,5.8,7,9.9,9.3C756.4,164,761.5,165.2,767.5,165.2z"/>
	<path class="st0" d="M914.9,88.6c-2.2-2.2-4.9-3.8-7.9-4.8c-3-1-6.4-1.4-10.3-1.4c-6.5,0-12.4,1.6-17.5,4.7
		c-5.2,3.1-9.6,9.1-13.2,18v85.2h-22.7V64h21.5v15.3c9.1-12.2,21.1-18.4,36.3-18.4c5.6,0,10.1,0.8,13.6,2.3c3.5,1.5,6.4,3.3,8.6,5.4
		L914.9,88.6z"/>
	<path class="st0" d="M942.6,15.9c3.8,0,7,1.2,9.4,3.7c2.5,2.5,3.7,5.8,3.7,9.9c0,4-1.2,7.2-3.7,9.8c-2.5,2.5-5.6,3.8-9.4,3.8
		c-3.8,0-6.9-1.3-9.3-3.8c-2.4-2.5-3.6-5.8-3.6-9.8c0-4.1,1.2-7.4,3.6-9.9C935.7,17.1,938.8,15.9,942.6,15.9z M954,64v126.2h-22.7
		V64H954z"/>
	<path class="st0" d="M997.5,64v15.5c9.5-12.4,22.8-18.6,39.8-18.6c6.4,0,12.2,0.9,17.5,2.7c5.3,1.8,9.9,4.7,13.7,8.7
		c3.8,4,6.8,9.1,8.8,15.4c2.1,6.3,3.1,13.8,3.1,22.5v79.9h-22.7v-77.5c0-11-2.5-18.8-7.5-23.4c-5-4.6-11.7-6.9-20.2-6.9
		c-6.7,0-12.7,1.6-18.1,4.8c-5.4,3.2-9.9,9-13.4,17.4v85.6H976V64H997.5z"/>
	<path class="st0" d="M1204.5,64v102.1c0,11.5-1.4,21.3-4.1,29.6c-2.7,8.3-6.8,15.3-12.4,21c-5.6,5.7-12.7,10.4-21.3,14.1
		c-8.7,3.7-19,6.7-31.1,9.1l-2.6-20.3c8.7-2.1,16.3-4.4,22.7-7c6.4-2.6,11.6-5.8,15.7-9.7c4.1-3.8,7.2-8.2,9.1-13.2
		c1.9-5,2.9-10.9,2.9-17.8v-4.5c-4.1,5.1-9.4,9.3-15.7,12.6c-6.4,3.3-13.8,5-22.4,5c-8.7,0-16.2-1.8-22.3-5.5
		c-6.1-3.7-11.1-8.4-14.9-14.2c-3.8-5.8-6.6-12.4-8.2-19.8c-1.7-7.4-2.5-14.9-2.5-22.5s0.8-15.1,2.5-22.5c1.7-7.4,4.4-14,8.2-19.8
		c3.8-5.8,8.8-10.5,14.9-14.2c6.1-3.7,13.6-5.5,22.3-5.5c8.6,0,16.1,1.7,22.4,5.1c6.4,3.4,11.6,7.7,15.7,12.8V64H1204.5z
		 M1150.6,165.2c8.1,0,14.7-1.9,19.9-5.8c5.2-3.9,9.4-8.9,12.8-14.9V102c-3.3-6-7.6-11-12.8-14.8c-5.2-3.8-11.7-5.7-19.7-5.7
		c-6,0-11.1,1.2-15.3,3.5c-4.1,2.3-7.5,5.4-10,9.3c-2.5,3.9-4.3,8.3-5.4,13.4c-1,5-1.6,10.2-1.6,15.6c0,5.4,0.5,10.7,1.6,15.7
		c1,5.1,2.8,9.6,5.4,13.5c2.5,3.9,5.8,7,9.9,9.3C1139.5,164,1144.6,165.2,1150.6,165.2z"/>
	<path class="st0" d="M1225.2,171c2.9,0,5.2,0.9,7.1,2.8c1.9,1.9,2.8,4.4,2.8,7.5c0,3-0.9,5.5-2.8,7.4c-1.9,1.9-4.2,2.9-7.1,2.9
		c-2.8,0-5.1-1-6.9-2.9c-1.9-1.9-2.8-4.4-2.8-7.4c0-3.1,0.9-5.6,2.8-7.5C1220.2,171.9,1222.5,171,1225.2,171z"/>
	<path class="st0" d="M1316.1,120c-3.1-3.4-7.2-6.2-12.3-8.6c-5.1-2.3-10.7-3.5-16.8-3.5c-6.1,0-10.6,1.1-13.5,3.4
		c-2.9,2.3-4.3,5-4.3,8.3c0,2.4,0.7,4.4,2.2,5.9c1.4,1.6,3.4,2.9,5.9,4c2.2,1,4.6,1.8,7.3,2.5s5.5,1.5,8.4,2.3
		c2.9,0.8,5.8,1.7,8.8,2.7c3,1,5.8,2.1,8.5,3.4c4.9,2.4,8.5,5.3,10.9,8.7s3.5,7.9,3.5,13.4c0,5.6-1.1,10.3-3.2,14.1
		c-2.2,3.8-5,6.8-8.6,9.2c-3.6,2.3-7.7,4-12.2,5c-4.6,1-9.2,1.5-13.9,1.5c-4.3,0-8.4-0.4-12.3-1.1c-3.9-0.7-7.5-1.7-10.7-3
		c-3.2-1.3-6.2-2.7-8.7-4.3c-2.6-1.6-4.8-3.3-6.6-5.1l6.7-14.4c3.5,3.2,8,6.1,13.5,8.5c5.5,2.4,11.5,3.6,18,3.6
		c6.1,0,11.2-1.2,15.2-3.6c4-2.4,6-5.9,6-10.4c0-2.6-0.8-4.8-2.4-6.5c-1.6-1.7-4.2-3.2-7.8-4.7c-2.5-1.1-5.2-2-8.1-2.9
		c-2.9-0.8-5.7-1.6-8.6-2.4c-2.8-0.8-5.5-1.6-8.1-2.4c-2.6-0.8-4.9-1.7-6.9-2.7c-4.1-2-7.4-4.7-9.8-8.1c-2.5-3.4-3.7-7.7-3.7-13
		c0-4.3,0.9-8.2,2.7-11.6c1.8-3.4,4.3-6.3,7.4-8.6c3.1-2.3,6.9-4.1,11.2-5.3c4.4-1.2,9.1-1.8,14.1-1.8c8.2,0,15.2,1.3,21.1,4
		c5.9,2.6,10.4,5.5,13.7,8.6L1316.1,120z"/>
	<path class="st0" d="M1344.6,148.5c0.5,4.9,1.5,9.2,3.1,12.8c1.6,3.6,3.5,6.6,5.9,8.9c2.3,2.3,5,4.1,7.9,5.2c2.9,1.1,6,1.7,9.1,1.7
		c4.7,0,8.8-1.1,12.3-3.2c3.5-2.2,6.4-4.8,8.5-7.9l11.3,9.9c-1.3,1.8-3,3.7-5,5.7c-2,2-4.3,3.8-7,5.4c-2.7,1.6-5.8,3-9.3,4.1
		c-3.5,1.1-7.4,1.6-11.7,1.6c-5.6,0-11-1.1-16-3.1s-9.4-5.2-13.1-9.5c-3.7-4.2-6.7-9.4-8.8-15.8c-2.2-6.3-3.2-13.6-3.2-22
		c0-7.9,1-15,3-21.1c2-6.2,4.7-11.4,8.3-15.6c3.5-4.2,7.8-7.4,12.7-9.5c4.9-2.2,10.3-3.2,16.2-3.2c5.9,0,11.3,1.1,16.2,3.2
		c4.9,2.2,9.2,5.3,12.8,9.5c3.6,4.2,6.4,9.4,8.4,15.6c2,6.2,3,13.2,3,21.1c0,1.2,0,2.3-0.1,3.3c-0.1,1-0.2,2-0.3,3H1344.6z
		 M1368.9,108.2c-6.6,0-12.1,2.4-16.4,7.1c-4.3,4.7-7,11.6-7.9,20.4h48.4c-1-9.1-3.6-16-7.9-20.6
		C1380.8,110.5,1375.4,108.2,1368.9,108.2z"/>
</g>
<g>
	<defs>
		<path id="SVGID_1_" d="M14.7-13c0,0-17.2,102.1,22.9,89.5c15.1-4.7,33.6-15.6,63.1-25.2c49-16,111.1-22.5,111.3-4.6
			c0.2,14.6,57.8,1.2,68.8,13.8c30.9,35.2,39,87.2,39,87.2l-81.5,82.6L37.7,283c0,0-58.5-26.4-83.8-76.9S-18.5,5.4,14.7-13z"/>
	</defs>
	<clipPath id="SVGID_2_">
		<use xlink:href="#SVGID_1_"  style="overflow:visible;"/>
	</clipPath>
	<linearGradient id="SVGID_3_" gradientUnits="userSpaceOnUse" x1="110.4271" y1="-73.8062" x2="110.4271" y2="204.9845">
		<stop  offset="0" style="stop-color:#CD0F32"/>
		<stop  offset="1" style="stop-color:#A90F32"/>
	</linearGradient>
	<ellipse class="st1" cx="110.4" cy="65.6" rx="102.6" ry="139.4"/>
</g>
<g>
</g>
<g>
</g>
<g>
</g>
<g>
</g>
<g>
</g>
<g>
</g>
<g>
</g>
<g>
</g>
<g>
</g>
<g>
</g>
<g>
</g>
<g>
</g>
<g>
</g>
<g>
</g>
<g>
</g>
</svg>
