
<svg xmlns="http://www.w3.org/2000/svg" version="1.1" xmlns:xlink="http://www.w3.org/1999/xlink" preserveAspectRatio="none" x="0px" y="0px" width="1435px" height="256px" viewBox="0 0 1435 256">
<defs>
<linearGradient id="Gradient_1" gradientUnits="userSpaceOnUse" x1="163.1" y1="278.7875" x2="163.1" y2="0.012499999999988631" spreadMethod="pad">
<stop  offset="0%" stop-color="#CD0F32"/>

<stop  offset="100%" stop-color="#A90F32"/>
</linearGradient>

<g id="Layer0_0_FILL">
<path fill="#000000" stroke="none" d="
M 377.5 64
L 354.35 64 318.1 164 281.6 64 258.7 64 306.85 190.2 329.25 190.2 377.5 64
M 407.25 190.2
L 407.25 64 384.55 64 384.55 190.2 407.25 190.2
M 408.85 29.5
Q 408.85 23.35 405.15 19.65 401.55 15.9 395.75 15.9 390.05 15.9 386.5 19.65 382.85 23.45 382.85 29.5 382.85 35.5 386.5 39.3 390.05 43.1 395.75 43.1 401.35 43.1 405.15 39.3 408.85 35.55 408.85 29.5
M 577.4 190.2
L 577.4 13.9 554.7 21.65 554.7 190.2 577.4 190.2
M 508 63.65
Q 500.05 60.95 490.5 60.95 464.9 60.95 450.7 79.5
L 450.7 64 428.95 64 428.95 190.15 451.65 190.15 451.65 104.55
Q 456.9 92 465.05 87.15 473.15 82.35 483.15 82.35 495.85 82.35 503.35 89.25 510.85 96.15 510.85 112.65
L 510.85 190.15 533.55 190.15 533.55 110.25
Q 533.55 97.1 530.5 87.75 527.6 78.55 521.7 72.35 516.05 66.4 508 63.65
M 668.2 63.45
Q 659.4 60.95 648.5 60.95 632.75 60.95 621.5 65 610.15 69.2 603.4 74.35
L 612.5 92.5
Q 619.1 87.85 627.55 85.1 635.9 82.5 645.75 82.5 652.75 82.5 658 83.9 663.5 85.4 667.25 88.7 670.9 91.9 673.05 97.6 675.05 103.45 675.05 111.6
L 675.05 115.9
Q 667.2 112.5 658.85 110.9 650.05 109.2 641.95 109.2 631.5 109.2 622.65 111.9 613.9 114.55 607.35 119.9 601 125.1 597.35 133.1 593.75 141.2 593.75 151.3 593.75 161.75 597.35 169.4 601.05 177.1 607.05 182 613.1 187 621.35 189.4 629.6 191.8 639.15 191.8 660.3 191.8 676.35 181.1
L 676.35 190.2 697.35 190.2 697.35 110
Q 697.35 95.95 693.75 86.7 690.4 77.45 683.7 71.6 676.85 65.85 668.2 63.45
M 661.5 127.05
Q 669.2 128.35 675.2 130.65
L 675.2 165.75
Q 668.45 169.3 660.1 171.25 651.75 173.15 644.2 173.15 638.45 173.15 633 171.75 627.7 170.4 623.75 167.65 619.8 164.9 617.55 160.65 615.25 156.2 615.25 150.15 615.25 137.45 624.55 131.65 634 125.85 647.5 125.85 654.1 125.85 661.5 127.05
M 817.3 195.75
Q 821.4 183.15 821.4 166.15
L 821.4 64 800.3 64 800.3 78.95
Q 794.05 71.15 784.6 66.15 775.15 61.05 762.2 61.05 748.95 61.05 739.9 66.55 730.6 72.2 725 80.75 719.4 89.35 716.8 100.55 714.3 111.45 714.3 123.05 714.3 134.65 716.8 145.55 719.15 156.4 725 165.35 730.6 173.9 739.9 179.55 748.95 185.05 762.2 185.05 774.9 185.05 784.6 180.05 794.2 175 800.3 167.45
L 800.3 171.95
Q 800.3 182.1 797.4 189.75 794.6 197.1 788.3 202.95 782.2 208.75 772.6 212.65 763.4 216.4 749.9 219.65
L 752.5 239.95
Q 770.7 236.35 783.6 230.85 796.5 225.3 804.9 216.75 808.9578125 212.6435546875 812 207.55 815.2181640625 202.201171875 817.3 195.75
M 752.4 85
Q 758.8 81.5 767.7 81.5 779.6 81.5 787.4 87.2 795.2 92.9 800.2 102
L 800.2 144.5
Q 795 153.7 787.4 159.4 779.75 165.2 767.5 165.2 758.7 165.2 752.3 161.85 746.15 158.3 742.4 152.5 738.55 146.9 737 139 735.4 131.75 735.4 123.35 735.4 115.75 737 107.75 738.6 100.25 742.4 94.35 746.05 88.65 752.4 85
M 954 64
L 931.25 64 931.25 190.2 954 190.2 954 64
M 907 83.8
Q 911.55 85.3 914.9 88.6
L 923.25 68.6
Q 919.95 65.45 914.65 63.25 909.3 60.95 901.05 60.95 878.5 60.95 864.75 79.35
L 864.75 64 843.25 64 843.25 190.3 866 190.3 866 105.1
Q 871.4 91.75 879.2 87.1 886.85 82.4 896.7 82.4 902.8 82.4 907 83.8
M 952 19.65
Q 948.35 15.9 942.55 15.9 936.95 15.9 933.25 19.65 929.7 23.45 929.7 29.5 929.7 35.6 933.25 39.3 936.9 43.1 942.55 43.1 948.2 43.1 952 39.3 955.7 35.55 955.7 29.5 955.7 23.35 952 19.65
M 1068.5 72.35
Q 1062.8 66.4 1054.8 63.65 1046.85 60.95 1037.3 60.95 1011.7 60.95 997.5 79.5
L 997.5 64 976 64 976 190.15 998.5 190.15 998.5 104.55
Q 1003.75 92 1011.9 87.15 1020 82.35 1030 82.35 1042.7 82.35 1050.2 89.25 1057.7 96.15 1057.7 112.65
L 1057.7 190.15 1080.4 190.15 1080.4 110.25
Q 1080.4 97.05 1077.3 87.75 1074.4 78.55 1068.5 72.35
M 1235.05 181.35
Q 1235.05 176.6 1232.25 173.85 1229.45 171 1225.15 171 1221.05 171 1218.25 173.85 1215.45 176.6 1215.45 181.35 1215.45 185.95 1218.25 188.7 1221 191.6 1225.15 191.6 1229.35 191.6 1232.25 188.7 1235.05 185.95 1235.05 181.35
M 1167.65 66.15
Q 1158.2 61.05 1145.25 61.05 1132 61.05 1122.95 66.55 1115.1853515625 71.2671875 1110 78 1108.974609375 79.3384765625 1108.05 80.75 1102.45 89.35 1099.85 100.55 1097.35 111.45 1097.35 123.05 1097.35 134.65 1099.85 145.55 1102.2 156.4 1108.05 165.35 1108.974609375 166.7615234375 1110 168.1 1115.1853515625 174.8328125 1122.95 179.55 1132 185.05 1145.25 185.05 1157.95 185.05 1167.65 180.05 1177.25 175 1183.35 167.45
L 1183.35 171.95
Q 1183.35 182.1 1180.45 189.75 1177.65 197.1 1171.35 202.95 1165.25 208.75 1155.65 212.65 1146.65 216.35 1133 219.65
L 1135.55 239.95
Q 1153.85 236.3 1166.65 230.85 1178.1052734375 225.940625 1186 218.65 1187.03046875 217.7369140625 1188 216.75 1196.35 208.15 1200.4 195.75 1204.5 182.9 1204.5 166.15
L 1204.5 64 1183.35 64 1183.35 78.95
Q 1177.1 71.15 1167.65 66.15
M 1150.8 81.5
Q 1162.7 81.5 1170.5 87.2 1178.3 92.9 1183.3 102
L 1183.3 144.5
Q 1178.15 153.6 1170.5 159.4 1162.8 165.2 1150.55 165.2 1141.8 165.2 1135.4 161.85 1129.25 158.3 1125.5 152.5 1121.55 146.6 1120.05 139 1118.5 131.6 1118.5 123.35 1118.5 115.5 1120.05 107.75 1121.65 100.35 1125.5 94.35 1129.15 88.65 1135.5 85 1141.9 81.5 1150.8 81.5
M 1303.75 111.45
Q 1311.7 115.15 1316.05 120
L 1322.65 105.1
Q 1317.5 100.25 1308.95 96.5 1300.05 92.5 1287.85 92.5 1280.55 92.5 1273.75 94.35 1267.2 96.2 1262.55 99.65 1257.95 103.15 1255.15 108.25 1252.5 113.4 1252.5 119.85 1252.5 127.9 1256.15 132.85 1259.7 137.9 1266 140.95 1269 142.45 1272.9 143.65
L 1289.55 148.4
Q 1294.45 149.9 1297.65 151.3 1303.25 153.6 1305.5 156 1307.9 158.65 1307.9 162.5 1307.9 169.3 1301.9 172.9 1295.9 176.5 1286.7 176.5 1276.95 176.5 1268.7 172.9 1260.65 169.4 1255.2 164.4
L 1248.5 178.8
Q 1251.2 181.5 1255.1 183.9 1258.4 186 1263.8 188.2 1268.6 190.15 1274.5 191.2 1280.65 192.3 1286.8 192.3 1293.8 192.3 1300.7 190.8 1307.4 189.3 1312.9 185.8 1318.25 182.25 1321.5 176.6 1324.65 170.75 1324.65 162.5 1324.65 154.05 1321.15 149.1 1317.55 143.95 1310.25 140.4 1305.9 138.4 1301.75 137 1297.9 135.7 1292.95 134.35 1287.85 132.85 1284.55 132 1280.7 131.1 1277.25 129.5 1273.4 127.9 1271.35 125.55 1269.15 123.35 1269.15 119.65 1269.15 114.75 1273.45 111.35 1277.65 107.95 1286.95 107.95 1296.15 107.95 1303.75 111.45
M 1368.8 92.9
Q 1359.75 92.9 1352.6 96.1 1345.15 99.3 1339.9 105.6 1334.65 111.7 1331.6 121.2 1328.6 130.35 1328.6 142.3 1328.6 155.15 1331.8 164.3 1334.85 173.55 1340.6 180.1 1346.2 186.6 1353.7 189.6 1361.45 192.7 1369.7 192.7 1376.3 192.7 1381.4 191.1 1386.45 189.5 1390.7 187 1391.891015625 186.29140625 1393 185.5 1395.5697265625 183.7302734375 1397.7 181.6 1400.9 178.4 1402.7 175.9
L 1391.4 166
Q 1388.4 170.45 1382.9 173.9 1377.55 177.1 1370.55 177.1 1366 177.1 1361.5 175.4 1357.35 173.95 1353.55 170.2 1350.2 167.05 1347.65 161.35 1345.315625 156.08515625 1344.55 148.6
L 1408.8 148.6 1409.1 145.6
Q 1409.2 144.6 1409.2 142.3 1409.2 130.5 1406.2 121.2 1403.2 111.9 1397.8 105.6 1395.580859375 103.048828125 1393 100.95 1389.3595703125 98.0603515625 1385 96.1 1377.55 92.9 1368.8 92.9
M 1352.5 115.3
Q 1359 108.2 1368.9 108.2 1378.7 108.2 1385.05 115.1 1391.5 121.9 1393 135.7
L 1344.55 135.7
Q 1346 122.35 1352.5 115.3 Z"/>
</g>

<g id="Mask_vinlagring_vit_svg_Layer_1__Clip_Group__0_2_MASK_0_FILL">
<path fill="#FFFFFF" stroke="none" d="
M 364.55 191.05
Q 352.75 156.25 333.45 134.25 329.8 130.1 318.1 128.85 311.8 128.2 295 128.15 279.95 128.1 273.95 127.05 264.75 125.4 264.7 120.5 264.6 114.05 254.1 111.4 244.4 108.95 227.3 110.05 192.5 112.25 153.35 125.05 137.1 130.35 116.4 139.55 96.55 148.3 90.25 150.25 65.2 158.15 63.8 110.25 63.05 86.3 67.35 60.75 55.2 67.5 40.3 95.65 26 122.8 15.05 158.3 3.55 195.7 0.75 226.95 -2.35 262 6.6 279.9 22.45 311.45 58 337.25 75.8 350.15 90.4 356.75
L 290.95 304.05 372.45 221.45
Q 370.45 208.45 364.55 191.05 Z"/>
</g>

<g id="vinlagring_vit_svg_Layer_1__Clip_Group__0_Layer2_0_FILL">
<path fill="url(#Gradient_1)" stroke="none" d="
M 235.65 40.8
Q 221.45 21.55 203.05 10.95 183.95 0 163.1 0 142.2 0 123.15 10.95 104.75 21.55 90.55 40.8 76.35 60.1 68.55 85.1 60.5 111 60.5 139.35 60.5 167.7 68.55 193.6 76.35 218.65 90.55 237.95 104.75 257.2 123.15 267.8 142.2 278.75 163.1 278.75 183.95 278.75 203.05 267.8 221.45 257.2 235.65 237.95 249.85 218.65 257.65 193.6 265.7 167.7 265.7 139.35 265.7 111 257.65 85.1 249.85 60.1 235.65 40.8 Z"/>
</g>
</defs>

<g transform="matrix( 1, 0, 0, 1, 0,0) ">
<use xlink:href="#Layer0_0_FILL"/>
</g>

<g transform="matrix( 1, 0, 0, 1, -52.7,-73.75) ">
<mask id="Mask_Mask_1">
<g transform="matrix( 1, 0, 0, 1, 0,0) ">
<use xlink:href="#Mask_vinlagring_vit_svg_Layer_1__Clip_Group__0_2_MASK_0_FILL"/>
</g>
</mask>

<g mask="url(#Mask_Mask_1)">
<g transform="matrix( 1, 0, 0, 1, 0,0) ">
<use xlink:href="#vinlagring_vit_svg_Layer_1__Clip_Group__0_Layer2_0_FILL"/>
</g>
</g>
</g>
</svg>
